<?xml version="1.0" encoding="utf-8"?>
<!-- Generator: Adobe Illustrator 27.9.0, SVG Export Plug-In . SVG Version: 6.00 Build 0)  -->
<svg version="1.1" id="Layer_1" xmlns="http://www.w3.org/2000/svg" xmlns:xlink="http://www.w3.org/1999/xlink" x="0px" y="0px"
	 viewBox="0 0 612 209" style="enable-background:new 0 0 612 209;" xml:space="preserve">
<style type="text/css">
	.st0{fill:none;stroke:#BF3B3A;stroke-width:1.5;stroke-linecap:round;stroke-linejoin:round;stroke-miterlimit:10;}
	.st1{fill:#BF3B3A;}
</style>
<g>
	<g>
		<path class="st0" d="M135.33,104.05c0-1.94,0-3.88,0-5.82c2.16-0.05,3.9-0.76,3.9-4.96c0-7.72,0-15.44,0-23.16
			c-1.08,0.03-2.16,0.06-3.24,0.08c-2.16,0.05-3.18,0.54-4.08,5.36c-0.1,0.52-0.2,1.04-0.3,1.56c-1.86,0.03-3.72,0.04-5.58,0.04
			c0.24-4.6,0.48-9.2,0.72-13.8c13.16-0.04,26.32-0.65,39.48-1.69c0.26,4.58,0.52,9.16,0.78,13.74c-2.08,0.17-4.16,0.32-6.24,0.47
			c-0.1-0.51-0.2-1.03-0.3-1.54c-0.9-4.74-1.86-5.15-4.02-5.02c-0.9,0.06-1.8,0.11-2.7,0.16c0,7.74,0,15.48,0,23.22
			c0,4.14,1.68,4.71,3.84,4.57c0,1.94,0,3.88,0,5.82C150.17,103.56,142.75,103.89,135.33,104.05z"/>
		<path class="st0" d="M189.69,100.16c0-1.94,0-3.88,0-5.82c2.1-0.24,3.78-0.99,3.78-4.71c0-3.3,0-6.6,0-9.9
			c0-1.74-0.84-4.04-3.24-3.75c-2.16,0.25-3.72,1.86-3.72,7.26c0,5.76,0,11.52,0,17.28c-5.7,0.63-11.4,1.2-17.1,1.68
			c0-1.94,0-3.88,0-5.82c2.1-0.18,3.78-0.87,3.78-4.59c0-6.98,0-13.96,0-20.94c0-3.36-1.26-3.78-3.78-3.57c0-1.96,0-3.92,0-5.88
			c5.7-1.38,11.4-2.85,17.1-4.38c0,5.26,0,10.52,0,15.78c4.26-4.37,7.68-4.91,9.96-5.2c4.02-0.49,10.32-0.04,10.32,9.26
			c0,3.68,0,7.36,0,11.04c0,3.72,1.68,4.03,3.84,3.72c0,1.94,0,3.88,0,5.82C203.65,98.44,196.67,99.35,189.69,100.16z"/>
		<path class="st0" d="M242.19,89.4c-3.9,3.26-7.14,5.25-12.42,6.12c-14.28,2.31-18.54-6.35-18.54-13.23
			c0-9.06,7.38-17.72,16.62-19.22c11.4-1.86,16.08,2.91,16.08,12.52c0,0.6,0,1.2,0,1.8c-6.36,1.12-12.72,2.19-19.08,3.19
			c0,4.08,2.52,7.17,6.96,6.43c2.46-0.41,4.92-2.14,7.14-3.6C240.03,85.42,241.11,87.41,242.19,89.4z M232.77,74.39
			c0,0,0-4.98-3.72-4.37c-3.3,0.54-3.78,5.59-3.78,5.59C227.77,75.21,230.27,74.8,232.77,74.39z"/>
		<path class="st0" d="M292.53,82.86c0-1.94,0-3.88,0-5.82c2.16-0.43,3.84-1.43,3.84-5.63c0-4.28,0-8.56,0-12.84
			c-0.08,0.02-0.16,0.03-0.24,0.05c-3.54,8.55-7.08,17.09-10.62,25.64c-1.16,0.23-2.32,0.46-3.48,0.69
			c-3.02-7.21-6.04-14.42-9.06-21.63c-0.08,0.02-0.16,0.03-0.24,0.05c0,4.26,0,8.52,0,12.78c0,4.14,1.74,4.46,3.9,4.04
			c0,1.94,0,3.88,0,5.82c-5.2,1.01-10.4,2.01-15.6,2.98c0-1.94,0-3.88,0-5.82c2.22-0.42,3.84-1.38,3.84-5.58c0-6.48,0-12.96,0-19.44
			c0-4.2-1.62-4.49-3.84-4.08c0-1.96,0-3.92,0-5.88c6.72-1.26,13.44-2.56,20.16-3.88c2.22,5.46,4.44,10.92,6.66,16.38
			c0.06-0.01,0.12-0.02,0.18-0.04c2.58-6.41,5.16-12.83,7.74-19.24c6.32-1.27,12.64-2.54,18.96-3.82c0,1.96,0,3.92,0,5.88
			c-2.16,0.44-3.84,1.37-3.84,5.57c0,6.5,0,13,0,19.5c0,4.14,1.68,4.46,3.84,4.03c0,1.94,0,3.88,0,5.82
			C307.33,79.89,299.93,81.39,292.53,82.86z"/>
		<path class="st0" d="M333.03,75.75c-11.4,2.27-17.4-4.01-17.4-12.83c0-9,7.02-17.86,17.4-19.92s17.4,4.04,17.4,13.03
			C350.43,64.85,343.95,73.58,333.03,75.75z M336.57,58.73c0-4.26-0.54-8.71-3.54-8.12c-3,0.6-3.54,5.26-3.54,9.52
			c0,4.2,0.54,8.59,3.54,8S336.57,62.93,336.57,58.73z"/>
		<path class="st0" d="M366.39,68.93c-3.24-5.69-6.48-11.36-9.72-17.03c-1.5-2.66-2.76-6.32-6.24-5.65c0-1.88,0-3.76,0-5.64
			c6.86-1.32,13.72-2.6,20.58-3.84c0,1.88,0,3.76,0,5.64c-1.14,0.2-2.52,0.82-2.52,2.08c0,0.36,0.24,0.8,0.48,1.29
			c1.16,2.25,2.32,4.5,3.48,6.75c0.14-0.03,0.28-0.05,0.42-0.08c1.1-2.38,2.2-4.75,3.3-7.13c0.42-0.91,0.84-1.83,0.84-2.43
			c0-0.9-0.78-1.42-2.58-1.11c0-1.88,0-3.76,0-5.64c4.82-0.86,9.64-1.68,14.46-2.48c0,1.88,0,3.76,0,5.64
			c-2.52,0.42-3.78,1.95-5.82,6.08c-3.68,7.49-7.36,14.99-11.04,22.51C370.15,68.24,368.27,68.58,366.39,68.93z"/>
		<path class="st0" d="M391.89,63.9c0-1.94,0-3.88,0-5.82c2.1-0.34,3.78-1.15,3.78-4.87c0-3.06,0-6.12,0-9.18
			c0-3.36-1.26-3.7-3.78-3.29c0-1.96,0-3.92,0-5.88c5.7-1.83,11.4-3.61,17.1-5.33c0,7.22,0,14.44,0,21.66
			c0,3.72,1.68,4.02,3.84,3.71c0,1.94,0,3.88,0,5.82C405.85,61.7,398.87,62.77,391.89,63.9z M402.51,29.53
			c-3.54,0.54-6.42-1.52-6.42-4.64c0-3.12,2.88-6.1,6.42-6.64s6.42,1.57,6.42,4.69C408.93,26.06,406.05,29,402.51,29.53z"/>
		<path class="st0" d="M435.51,57.89c0-1.94,0-3.88,0-5.82c2.1-0.23,3.78-0.94,3.78-4.66c0-3.18,0-6.36,0-9.54
			c0-2.88-1.14-4.38-3.18-4.16c-2.1,0.23-3.78,1.8-3.78,7.26c0,5.76,0,11.52,0,17.28c-5.7,0.65-11.4,1.37-17.1,2.15
			c0-1.94,0-3.88,0-5.82c2.1-0.29,3.78-1.05,3.78-4.77c0-3,0-6,0-9c0-3.6-1.2-3.8-3.72-3.46c0-2,0-4,0-6
			c4.92-1.47,9.84-2.9,14.76-4.28c0.28,1.41,0.56,2.81,0.84,4.22c0.12-0.01,0.24-0.03,0.36-0.04c4.8-5.3,8.82-5.59,11.04-5.81
			c4.02-0.41,10.32,0.55,10.32,9.86c0,3.62,0,7.24,0,10.86c0,3.72,1.68,4.12,3.84,3.95c0,1.94,0,3.88,0,5.82
			C449.47,56.46,442.49,57.12,435.51,57.89z"/>
		<path class="st0" d="M483.39,48.36c5.58-0.14,9.18,3.22,9.18,7.59c0,7.93-7.68,12.65-19.14,13.16
			c-10.38,0.49-15.78-2.22-15.78-6.5c0-2.76,1.08-4.7,3.6-6.91c-1.62-0.55-3.06-1.64-3.06-3.92c0-3.96,3.66-6.45,6.84-8.32
			c-3.48-1.65-5.22-4.87-5.22-8.06c0-7.5,6.66-11.89,14.46-12.23c4.56-0.2,8.28,1.02,10.68,2.05c0.42,0.17,1.2,0.39,1.5,0.39
			c0.78-0.02,1.08-0.74,1.08-2.3c2.42-0.04,4.84-0.06,7.26-0.07c0,4.56-2.4,8.04-6.18,8.69c0.42,1.31,0.42,2.51,0.42,3.47
			c0,3.2-3.24,8.93-12.84,9.29c-1.52,0.06-3.04,0.13-4.56,0.2c-1.2,0.06-2.34,0.72-2.34,2.1c0,1.8,1.5,1.84,3,1.77
			C475.99,48.6,479.69,48.46,483.39,48.36z M472.59,58.24c-2.1-0.2-3.48-0.49-5.28-0.75c-0.72,0.82-1.02,1.56-1.02,2.64
			c0,2.63,5.76,3.04,7.62,2.97c2.76-0.12,5.34-1.47,5.34-2.79c0-1.2-0.66-1.66-1.56-1.74C477.69,58.56,474.57,58.44,472.59,58.24z
			 M476.73,33.7c0-1.74-0.24-4.31-2.52-4.22c-1.86,0.08-2.1,2.5-2.1,4.42c0,1.8,0.18,4.61,2.22,4.52
			C476.73,38.32,476.73,35.14,476.73,33.7z"/>
		<path class="st0" d="M179.49,173.27c0-1.94,0-3.88,0-5.82c2.22-0.22,3.84-1.06,3.84-5.26c0-6.48,0-12.96,0-19.44
			c0-4.2-1.68-4.68-3.84-4.46c0-1.94,0-3.88,0-5.82c8.6-0.87,17.2-1.9,25.8-3.08c4.5-0.62,7.86,0.27,10.08,2.1
			c2.46,2.03,3.84,5.24,3.84,8.96c0,10.33-9.36,13.65-14.46,14.33c-1.98,0.27-4.98,0.49-6.9,0.31c0,1.82,0,3.64,0,5.46
			c0,4.14,2.1,4.53,4.74,4.18c0,1.94,0,3.88,0,5.82C194.89,171.58,187.19,172.49,179.49,173.27z M197.85,137.33c0,3.6,0,7.2,0,10.8
			c1.08,0.04,2.28,0.07,2.94-0.02c2.94-0.39,4.38-3.35,4.38-6.65c0-3.12-2.04-4.82-4.92-4.44
			C199.45,137.13,198.65,137.23,197.85,137.33z"/>
		<path class="st0" d="M221.61,167.8c0-1.94,0-3.88,0-5.82c2.1-0.33,3.78-1.13,3.78-4.85c0-3.06,0-6.12,0-9.18
			c0-3.36-1.26-3.7-3.78-3.31c0-1.96,0-3.92,0-5.88c5.7-1.78,11.4-3.62,17.1-5.5c0,7.22,0,14.44,0,21.66c0,3.72,1.68,3.97,3.84,3.6
			c0,1.94,0,3.88,0,5.82C235.57,165.56,228.59,166.72,221.61,167.8z M232.23,133.4c-3.54,0.59-6.42-1.48-6.42-4.6
			s2.88-6.1,6.42-6.68c3.54-0.59,6.42,1.44,6.42,4.56S235.77,132.81,232.23,133.4z"/>
		<path class="st0" d="M273.03,156.49c-3.72,3.18-7.86,4.75-11.7,5.47c-11.94,2.23-18.18-3.96-18.18-12.72
			c0-9.72,7.86-18.11,17.04-19.83c6.18-1.15,13.08-0.21,13.08,5.43c0,2.16-1.14,4.96-3.72,5.46c-5.76,1.1-3.42-4.8-8.58-3.83
			c-1.86,0.35-4.02,2.67-4.02,9.15c0,5.34,2.46,8.55,6.66,7.76c2.22-0.42,4.26-1.77,6.36-3.13
			C270.99,152.32,272.01,154.4,273.03,156.49z"/>
		<path class="st0" d="M300.21,152.61c-3.9,2.16-6.24,2.99-9.78,3.7c-6.72,1.34-10.62-0.6-10.62-7.44c0-5.1,0-10.2,0-15.3
			c-1.28,0.25-2.56,0.5-3.84,0.75c0-2.28,0-4.56,0-6.84c3.24-1.11,6.96-6.46,8.88-11.1c2.76-0.55,5.52-1.1,8.28-1.65
			c0,3.1,0,6.2,0,9.3c2.1-0.42,4.2-0.84,6.3-1.26c0,2.3,0,4.6,0,6.9c-2.1,0.42-4.2,0.84-6.3,1.26c0,3.76,0,7.52,0,11.28
			c0,4.8,2.82,4.36,6.48,3.14C299.81,147.77,300.01,150.19,300.21,152.61z"/>
		<path class="st0" d="M329.79,148.4c-0.36-1.45-0.72-2.9-1.08-4.34c-0.08,0.02-0.16,0.03-0.24,0.05
			c-3.66,4.21-7.32,6.03-10.74,6.71c-5.76,1.16-11.22,0.1-11.22-7.16c0-3.42,0-6.84,0-10.26c0-4.14-1.74-4.63-3.9-4.19c0-2,0-4,0-6
			c5.72-1.73,11.44-3.47,17.16-5.2c0,6.26,0,12.52,0,18.78c0,3.72,0.9,5.94,3.6,5.4c1.98-0.4,4.08-2.86,4.08-4.78
			c0-2.94,0-5.88,0-8.82c0-4.14-1.74-4.33-3.9-3.9c0-1.98,0-3.96,0-5.94c5.7-1.64,11.4-3.28,17.1-4.9c0,7.08,0,14.16,0,21.24
			c0,3.36,1.14,3.68,3.66,3.18c0,1.96,0,3.92,0,5.88C339.47,145.56,334.63,146.97,329.79,148.4z"/>
		<path class="st0" d="M346.71,144.05c0-1.94,0-3.88,0-5.82c2.1-0.41,3.78-1.27,3.78-4.99c0-3.02,0-6.04,0-9.06
			c0-3.6-1.2-3.67-3.72-3.18c0-2,0-4,0-6c4.92-1.75,9.84-3.49,14.76-5.21c0.28,1.39,0.56,2.78,0.84,4.16
			c0.12-0.02,0.24-0.04,0.36-0.07c2.34-2.77,4.74-5.5,8.4-6.15c4.2-0.76,7.14,1.01,7.14,5.69c0,3.66-2.04,6.84-4.98,7.36
			c-5.82,1.04-4.2-4.88-7.32-4.32c-1.38,0.25-2.22,2.03-2.22,5.51c0,2.92,0,5.84,0,8.76c0,3.72,1.74,3.94,3.9,3.54
			c0,1.94,0,3.88,0,5.82C360.67,141.37,353.69,142.69,346.71,144.05z"/>
		<path class="st0" d="M409.83,130.15c-3.9,3.14-7.14,5.06-12.42,5.89c-14.28,2.27-18.54-6.08-18.54-13
			c0-9.06,7.38-17.98,16.62-19.45c11.4-1.8,16.08,3.23,16.08,12.82c0,0.6,0,1.2,0,1.8c-6.36,0.9-12.72,1.87-19.08,2.9
			c0,4.08,2.52,7.15,6.96,6.46c2.46-0.38,4.92-2.07,7.14-3.48C407.67,126.1,408.75,128.13,409.83,130.15z M400.41,114.94
			c0,0,0-4.98-3.72-4.4c-3.3,0.52-3.78,5.58-3.78,5.58C395.41,115.72,397.91,115.32,400.41,114.94z"/>
		<path class="st0" d="M434.91,108.77c-0.72-1.9-1.98-4.35-6-3.87c-0.9,0.11-2.34,0.94-2.34,2.38c0,2.16,4.8,2.77,8.88,4.25
			c2.94,1.06,5.28,3.76,5.28,7.66c0,8.1-5.94,11.75-13.38,12.65c-2.52,0.3-6.24,0.12-9.12-0.64c-1.56-0.45-2.88-1.05-3.66-1.48
			c0.26-2.68,0.52-5.35,0.78-8.03c1.3-0.18,2.6-0.35,3.9-0.52c1.26,2,2.52,5.06,7.02,4.51c1.26-0.16,2.76-0.99,2.76-2.37
			c0-2.28-3.42-2.18-7.56-3.8c-2.88-1.13-6.3-3.18-6.3-7.98c0-6.9,5.22-11.59,12.54-12.48c4.14-0.5,6.66,0,10.68,1.37
			c0.4,2.62,0.8,5.24,1.2,7.86C438.03,108.44,436.47,108.6,434.91,108.77z"/>
	</g>
</g>
<polygon class="st1" points="324.64,189.91 316.52,185.82 308.55,190.19 309.93,181.2 303.3,174.97 312.28,173.51 316.16,165.28 
	320.33,173.36 329.35,174.51 322.95,180.98 "/>
</svg>
